/* XPM */
static char * arrow_next_xpm[] = {
"50 50 3 1",
" 	c #FFFFFE",
".	c #000000",
"+	c #FFFFFF",
"                                                  ",
"                                                  ",
"                                                  ",
"                                                  ",
"             ++++++                               ",
"             ++++++                               ",
"             ++++++                               ",
"             ++++++                               ",
"             ++++++                               ",
"             ++++++                               ",
"                   ++++++                         ",
"                   ++++++                         ",
"                   ++++++                         ",
"                   ++++++                         ",
"                   ++++++                         ",
"                   ++++++                         ",
"                         ++++++                   ",
"                         ++++++                   ",
"                         ++++++                   ",
"                         ++++++                   ",
"                         ++++++                   ",
"                         ++++++                   ",
"                               ++++++             ",
"                               ++++++             ",
"                               ++++++             ",
"                               ++++++             ",
"                               ++++++             ",
"                               ++++++             ",
"                         ++++++                   ",
"                         ++++++                   ",
"                         ++++++                   ",
"                         ++++++                   ",
"                         ++++++                   ",
"                         ++++++                   ",
"                   ++++++                         ",
"                   ++++++                         ",
"                   ++++++                         ",
"                   ++++++                         ",
"                   ++++++                         ",
"                   ++++++                         ",
"             ++++++                               ",
"             ++++++                               ",
"             ++++++                               ",
"             ++++++                               ",
"             ++++++                               ",
"             ++++++                               ",
"                                                  ",
"                                                  ",
"                                                  ",
"                                                  "};
