/* XPM */
static char * bucket_xpm[] = {
"50 50 10 1",
" 	c #7A7A7A",
".	c #000000",
"+	c #2ECC71",
"@	c #FFFFFF",
"#	c #3498DB",
"$	c #9B59B6",
"%	c #CCCCCC",
"&	c #F1C40F",
"*	c #A3A3A3",
"=	c #E74C3C",
"                                                  ",
"                                                  ",
"                                                  ",
"                                                  ",
"                 ...........                      ",
"                 ...........                      ",
"                 ...........                      ",
"              ...        .....                    ",
"              ...        .....                    ",
"              ...     ...+++..                    ",
"           ...        ...+++.....                 ",
"           ...        ...+++.....                 ",
"           ...      ..@@@.....###...              ",
"           ...      ..@@@.....###...              ",
"           ...      ..@@@.....###...              ",
"           ...   ...@@@@@@@@..######...           ",
"           ...   ...@@@@@@@@..######...           ",
"           ...   ...@@@@@@@@..######...           ",
"           ......@@@@@@@@@@@.....$$$$$$.....      ",
"           ......@@@@@@@@@@@.....$$$$$$.....      ",
"           ......@@@@@@@@@@@.....$$$$$$.....      ",
"           ...@@@@@@@@@@@@@@...%%...&&&&&&&&...   ",
"           ...@@@@@@@@@@@@@@...%%...&&&&&&&&...   ",
"         ..@@@@@@@@@@@%%%...%%%%%***...&&&&&...   ",
"         ..@@@@@@@@@@@%%%...%%%%%***...&&&&&...   ",
"         ..@@@@@@@@@@@%%%...%%%%%***...&&&&&...   ",
"      ...@@@@@@@@@@%%%%%%%%%%%*********..===...   ",
"      ...@@@@@@@@@@%%%%%%%%%%%*********..===...   ",
"      ...@@@@@@@@@@%%%%%%%%%%%*********..===...   ",
"   ...@@@@@@@@@@@%%%%%%%%%%%********...+++++...   ",
"   ...@@@@@@@@@@@%%%%%%%%%%%********...+++++...   ",
"   ...@@@@@@@@@@@%%%%%%%%%%%********...+++++...   ",
"      ...@@@@@%%%%%%%%%%%********...   ...++...   ",
"      ...@@@@@%%%%%%%%%%%********...   ...++...   ",
"         ..%%%%%%%%%%%*********..      ...++...   ",
"         ..%%%%%%%%%%%*********..      ...++...   ",
"         ..%%%%%%%%%%%*********..      ...++...   ",
"           ...%%%%%%********...           ..      ",
"           ...%%%%%%********...           ..      ",
"           ...%%%%%%********...           ..      ",
"              ...********...                      ",
"              ...********...                      ",
"              ...********...                      ",
"                 ...**...                         ",
"                 ...**...                         ",
"                    ..                            ",
"                    ..                            ",
"                    ..                            ",
"                                                  ",
"                                                  "};
