/* XPM */
static char * bucketcursor_xpm[] = {
"20 20 11 1",
" 	c #FFFFFE",
".	c #000000",
"+	c #000000",
"@	c #2ECC71",
"#	c #3498DB",
"$	c #FFFFFF",
"%	c #9B59B6",
"&	c #F1C40F",
"*	c #CCCCCC",
"=	c #A3A3A3",
"-	c #E74C3C",
"                    ",
"                    ",
"       +++          ",
"      +  ++         ",
"     +  +@@++       ",
"    +   +++##+      ",
"    +  +$$+###+     ",
"    + +$$$++%%%++   ",
"    ++$$$$+++&&&&+  ",
"    +$$$$+++*+&&&+  ",
"   +$$$$*++*==+--+  ",
"  +$$$$****===+@@+  ",
" +$$$$****===++@@+  ",
"  +$$****===+  +@+  ",
"   +****===+   +@+  ",
"    +**===+     +   ",
"     +===+          ",
"      +=+           ",
"       +            ",
"                    "};
