/* XPM */
static char * erasercursor_xpm[] = {
"20 20 5 1",
" 	c #FFFFFE",
".	c #000000",
"+	c #000000",
"@	c #FF6D6D",
"#	c #FFFFFF",
"                    ",
"            ++      ",
"           +@@+     ",
"          +@@@@+    ",
"         +@@@@@@+   ",
"        +@@@@@@@@+  ",
"       +@@@@@@@@@@+ ",
"      +@@@@@@@@@@@+ ",
"     +@@@@@@@@@@@+  ",
"    +@@@@@@@@@@@+   ",
"   +#+@@@@@@@@@+    ",
"  +###+@@@@@@@+     ",
" +#####+@@@@@+      ",
" +######+@@@+       ",
"  +######+@+        ",
"   +######+         ",
"    +####+          ",
"     +##+           ",
"      ++            ",
"                    "};
