/* XPM */
static char * eraser_xpm[] = {
"50 50 4 1",
" 	c #7A7A7A",
".	c #000000",
"+	c #FF6D6D",
"@	c #FFFFFF",
"                                                  ",
"                                                  ",
"                                                  ",
"                                                  ",
"                                                  ",
"                               ....               ",
"                              ......              ",
"                             ..++++..             ",
"                            ..++++++..            ",
"                           ..++++++++..           ",
"                          ..++++++++++..          ",
"                         ..++++++++++++..         ",
"                        ..++++++++++++++..        ",
"                       ..++++++++++++++++..       ",
"                      ..++++++++++++++++++..      ",
"                     ..++++++++++++++++++++..     ",
"                    ..++++++++++++++++++++++..    ",
"                   ..++++++++++++++++++++++++..   ",
"                  ..+++++++++++++++++++++++++..   ",
"                 ..++++++++++++++++++++++++++..   ",
"                ..++++++++++++++++++++++++++..    ",
"               ..++++++++++++++++++++++++++..     ",
"              ..++++++++++++++++++++++++++..      ",
"             ..++++++++++++++++++++++++++..       ",
"            ..++++++++++++++++++++++++++..        ",
"           ....++++++++++++++++++++++++..         ",
"          ..@@..++++++++++++++++++++++..          ",
"         ..@@@@..++++++++++++++++++++..           ",
"        ..@@@@@@..++++++++++++++++++..            ",
"       ..@@@@@@@@..++++++++++++++++..             ",
"      ..@@@@@@@@@@..++++++++++++++..              ",
"     ..@@@@@@@@@@@@..++++++++++++..               ",
"     ..@@@@@@@@@@@@@..++++++++++..                ",
"     ..@@@@@@@@@@@@@@..++++++++..                 ",
"      ..@@@@@@@@@@@@@@..++++++..                  ",
"       ..@@@@@@@@@@@@@@..++++..                   ",
"        ..@@@@@@@@@@@@@@..++..                    ",
"         ..@@@@@@@@@@@@@@....                     ",
"          ..@@@@@@@@@@@@@@..                      ",
"           ..@@@@@@@@@@@@..                       ",
"            ..@@@@@@@@@@..                        ",
"             ..@@@@@@@@..                         ",
"      ..............................              ",
"      ..............................              ",
"                                                  ",
"                                                  ",
"                                                  ",
"                                                  ",
"                                                  ",
"                                                  "};
