/* XPM */
static char * outline_xpm[] = {
"53 53 5 1",
" 	c #FFFFFE",
".	c #008EED",
"+	c #0061A1",
"@	c #00538A",
"#	c #000000",
".....................................................",
".+++++++++++++++++++++++++++++++++++++++++++++++++++.",
".+@@@@@@@@@@@@@@@@@@@@@@@@@@@@@@@@@@@@@@@@@@@@@@@@@+.",
".+@                                               @+.",
".+@                                               @+.",
".+@                                               @+.",
".+@                                               @+.",
".+@                                               @+.",
".+@                                               @+.",
".+@                                               @+.",
".+@                                               @+.",
".+@                                               @+.",
".+@                                               @+.",
".+@                                               @+.",
".+@                                               @+.",
".+@                                               @+.",
".+@                                               @+.",
".+@                                               @+.",
".+@                                               @+.",
".+@                                               @+.",
".+@                                               @+.",
".+@                                               @+.",
".+@                                               @+.",
".+@                                               @+.",
".+@                                               @+.",
".+@                                               @+.",
".+@                                               @+.",
".+@                                               @+.",
".+@                                               @+.",
".+@                                               @+.",
".+@                                               @+.",
".+@                                               @+.",
".+@                                               @+.",
".+@                                               @+.",
".+@                                               @+.",
".+@                                               @+.",
".+@                                               @+.",
".+@                                               @+.",
".+@                                               @+.",
".+@                                               @+.",
".+@                                               @+.",
".+@                                               @+.",
".+@                                               @+.",
".+@                                               @+.",
".+@                                               @+.",
".+@                                               @+.",
".+@                                               @+.",
".+@                                               @+.",
".+@                                               @+.",
".+@                                               @+.",
".+@@@@@@@@@@@@@@@@@@@@@@@@@@@@@@@@@@@@@@@@@@@@@@@@@+.",
".+++++++++++++++++++++++++++++++++++++++++++++++++++.",
"....................................................."};
