/* XPM */
static char * pencilcursor_xpm[] = {
"20 14 5 1",
" 	c #FFFFFE",
".	c #000000",
"+	c #000000",
"@	c #7A7A7A",
"#	c #939393",
"            ..      ",
"           ....     ",
"          ...@@.    ",
"         ...@@@..   ",
"        ...@@@...   ",
"       ...@@@...    ",
"      ...@@@...     ",
"     ...@@@...      ",
"    ...@@@...       ",
"   ...@@@...        ",
"   ##@@@...         ",
"   ###@...          ",
"   ####..           ",
"   .###.            ",
"                    "};
